HIERARCHY
ROOT Hips
{
     OFFSET -35.29530 98.29530 -3.61388
     CHANNELS 6 Xposition Yposition Zposition Zrotation Xrotation Yrotation
     JOINT Spine
     {
          OFFSET -0.00000 11.89050 0.00000
          CHANNELS 3 Zrotation Xrotation Yrotation
          JOINT Spine1
          {
               OFFSET 0.00000 25.65740 0.12766
               CHANNELS 3 Zrotation Xrotation Yrotation
               JOINT HEad
               {
                    OFFSET 0.00000 8.73416 0.01134
                    CHANNELS 3 Zrotation Xrotation Yrotation
                    End Site
                    {
                         OFFSET -0.29000 12.77420 2.51395
                    }
               }
               JOINT LeftShoulder1
               {
                    OFFSET 8.99000 -0.36225 -0.22000
                    CHANNELS 3 Zrotation Xrotation Yrotation
                    JOINT LeftArm
                    {
                         OFFSET 10.28270 -0.00338 0.32212
                         CHANNELS 3 Zrotation Xrotation Yrotation
                         JOINT LeftForeArm
                         {
                              OFFSET 32.76690 0.09914 -1.42434
                              CHANNELS 3 Zrotation Xrotation Yrotation
                              JOINT LeftHand
                              {
                                   OFFSET 27.56430 0.08536 1.02216
                                   CHANNELS 3 Zrotation Xrotation Yrotation
                                   End Site
                                   {
                                        OFFSET 16.74430 -0.60000 1.50291
                                   }
                              }
                         }
                    }
               }
               JOINT RightShoulder
               {
                    OFFSET -8.99000 -0.36225 -0.22000
                    CHANNELS 3 Zrotation Xrotation Yrotation
                    JOINT RightArm
                    {
                         OFFSET -10.28270 -0.00338 0.32212
                         CHANNELS 3 Zrotation Xrotation Yrotation
                         JOINT RightForeArm
                         {
                              OFFSET -32.89710 0.09914 -1.42434
                              CHANNELS 3 Zrotation Xrotation Yrotation
                              JOINT RightHand
                              {
                                   OFFSET -27.49210 0.08536 1.02216
                                   CHANNELS 3 Zrotation Xrotation Yrotation
                                   End Site
                                   {
                                        OFFSET -16.63120 -0.60000 1.50291
                                   }
                              }
                         }
                    }
               }
          }
     }
     JOINT LeftUpLeg
     {
          OFFSET 8.94580 -8.66707 0.10165
          CHANNELS 3 Zrotation Xrotation Yrotation
          JOINT LeftLeg
          {
               OFFSET -0.00000 -44.42270 1.37270
               CHANNELS 3 Zrotation Xrotation Yrotation
               JOINT LeftFoot
               {
                    OFFSET -0.25355 -42.09240 -1.46059
                    CHANNELS 3 Zrotation Xrotation Yrotation
                    JOINT LeftToes
                    {
                         OFFSET -0.04000 -4.41509 8.49910
                         CHANNELS 3 Zrotation Xrotation Yrotation
                         End Site
                         {
                              OFFSET 0.08000 -0.04745 9.77979
                         }
                    }
               }
          }
     }
     JOINT RightUpLeg
     {
          OFFSET -8.94580 -8.66707 0.10165
          CHANNELS 3 Zrotation Xrotation Yrotation
          JOINT RightLeg
          {
               OFFSET 0.00000 -44.42270 1.37270
               CHANNELS 3 Zrotation Xrotation Yrotation
               JOINT RightFoot
               {
                    OFFSET 0.25355 -42.09240 -1.46059
                    CHANNELS 3 Zrotation Xrotation Yrotation
                    JOINT RightToes
                    {
                         OFFSET 0.04000 -4.41509 8.49910
                         CHANNELS 3 Zrotation Xrotation Yrotation
                         End Site
                         {
                              OFFSET -0.08000 -0.13745 9.77979
                         }
                    }
               }
          }
     }
}
MOTION
Frames: 6
Frame Time: 0.01667
50.67350 96.35340 65.45580 -3.70818 2.16840 -74.60580 -7.47865 8.33413 1.62778 -1.37930 16.46710 2.16673 6.19360 -13.13950 28.12430 -0.00000 -0.00000 0.00000 -127.23600 -67.48540 -138.14600 -18.31920 54.07590 -96.07230 24.12150 5.49731 -16.87750 -4.97816 0.13957 10.26020 82.00750 2.46375 78.72610 13.69370 33.91190 90.92560 -17.25050 10.21070 -6.49218 22.16980 -28.44500 -21.66590 -35.00460 47.71690 78.33950 -24.85070 5.35364 2.80888 8.72947 -13.14930 -68.85490 -16.89140 -7.35624 -35.29810 3.94123 27.94250 -14.33870 22.10150 -8.54076 -0.00398 -1.03208 -10.83530 38.24990 
52.09980 95.89120 67.59020 -2.80179 2.18690 -75.29100 -7.33974 7.96291 1.17194 -2.46153 15.99440 1.45125 4.84176 -13.66590 29.08370 -0.00000 -0.00000 0.00000 -127.72900 -64.04970 -136.41400 -14.17590 53.92820 -98.74820 24.83830 5.68519 -15.38780 -6.29492 0.00407 9.95516 83.13690 2.66074 79.91440 14.17570 34.29910 91.46210 -17.37700 10.21260 -6.48847 23.02050 -24.38530 -25.42210 -30.12750 42.86730 72.39770 -26.73180 5.08637 2.97123 8.30802 -14.00980 -68.06620 -18.95490 -8.60473 -36.32020 4.21613 27.72150 -14.47280 23.11360 -8.53839 0.00370 -1.31278 -10.15610 37.96570 
53.60540 95.16460 69.91000 -1.99940 2.38778 -75.73800 -6.67709 7.65697 0.70532 -3.00888 15.59210 0.79956 3.17345 -14.32160 29.87320 -0.00000 -0.00000 0.00000 -128.69299 -60.30180 -133.72301 -10.50160 53.71120 -101.61800 25.60980 5.86544 -13.97150 -7.56761 -0.11704 9.52163 84.11120 2.74263 81.45280 14.80020 34.72870 91.82820 -17.48180 10.20420 -6.41738 23.35660 -20.67970 -28.36270 -25.00340 38.34470 64.92740 -29.94110 3.29676 2.88587 7.81204 -14.97860 -66.69120 -21.14770 -10.01520 -37.26510 4.57843 28.20890 -15.18580 24.06930 -8.65929 0.03664 -1.58357 -9.48966 37.68850 
55.24550 94.28650 72.29630 -1.29494 2.66860 -75.81740 -5.78934 7.49456 0.27273 -3.14822 15.38420 0.21348 1.56956 -15.13830 30.40370 -0.00000 -0.00000 0.00000 -130.29300 -56.22670 -130.55400 -8.05509 53.60230 -104.01700 26.40420 5.97770 -12.91350 -8.66728 -0.20988 9.02323 85.11560 2.64337 83.26400 15.36420 35.24830 92.18640 -17.58060 10.19870 -6.36689 23.34120 -17.86830 -30.04580 -20.35290 34.49790 56.82240 -33.49740 0.37082 2.39613 7.21965 -16.22870 -65.06440 -23.43540 -11.53950 -38.01790 4.84221 29.31560 -16.29290 24.75560 -8.76900 0.06654 -1.85867 -8.80430 37.42160 
57.06490 93.41220 74.62020 -0.72433 2.93079 -75.42460 -4.95491 7.54927 -0.07807 -3.04107 15.50620 -0.30940 0.33797 -16.12850 30.58710 -0.00000 -0.00000 0.00000 -132.37700 -51.92460 -127.29900 -7.01870 53.77730 -105.65000 27.21700 5.98477 -12.34490 -9.45872 -0.26438 8.50244 86.33790 2.40304 85.20590 15.70530 35.88780 92.64440 -17.69610 10.20630 -6.40457 22.99620 -16.45690 -30.29770 -16.73880 31.80380 49.03170 -36.33930 -2.69751 1.63101 6.56847 -17.77960 -63.70260 -25.70330 -13.06100 -38.39680 4.79345 30.87860 -17.43860 24.94310 -8.69822 0.05312 -2.12148 -8.14801 37.20890 
59.02620 92.78430 76.65700 -0.36528 3.08064 -74.48800 -4.31623 7.81940 -0.33601 -2.79946 16.02940 -0.74859 -0.40711 -17.25890 30.30100 -0.00000 -0.00000 0.00000 -134.52800 -47.59550 -124.17500 -6.99124 54.29980 -106.61600 28.04270 5.89529 -12.19210 -9.80968 -0.27303 7.96054 87.84690 2.15806 87.05270 15.78340 36.62190 93.20390 -17.84240 10.23090 -6.55263 22.38470 -16.40570 -29.11550 -14.16660 30.20520 41.99310 -37.85470 -4.80242 0.99572 5.92864 -19.45430 -62.97660 -27.62410 -14.32750 -38.18230 4.20731 32.56170 -18.16230 24.44080 -8.28143 -0.04007 -2.32939 -7.64609 37.14980 
